<?xml version="1.0" encoding="UTF-8" standalone="no"?>
<!DOCTYPE svg PUBLIC "-//W3C//DTD SVG 1.1//EN" "http://www.w3.org/Graphics/SVG/1.1/DTD/svg11.dtd">
<svg width="100%" height="100%" viewBox="0 0 446 120" version="1.1" xmlns="http://www.w3.org/2000/svg" xmlns:xlink="http://www.w3.org/1999/xlink" xml:space="preserve" xmlns:serif="http://www.serif.com/" style="fill-rule:evenodd;clip-rule:evenodd;stroke-linejoin:round;stroke-miterlimit:2;">
    <g transform="matrix(1,0,0,1,-250,-373.454)">
        <path d="M310,373.454C343.115,373.454 370,400.339 370,433.454C370,466.569 343.115,493.454 310,493.454C276.885,493.454 250,466.569 250,433.454C250,400.339 276.885,373.454 310,373.454ZM286.227,433.685C295.421,433.685 302.885,441.03 302.885,450.077C302.885,459.124 295.421,466.469 286.227,466.469C277.034,466.469 269.57,459.124 269.57,450.077C269.57,441.03 277.034,433.685 286.227,433.685ZM333.343,433.685C342.536,433.685 350,441.03 350,450.077C350,459.124 342.536,466.469 333.343,466.469C324.149,466.469 316.685,459.124 316.685,450.077C316.685,441.03 324.149,433.685 333.343,433.685ZM309.785,393.531C318.978,393.531 326.442,400.876 326.442,409.923C326.442,418.97 318.978,426.315 309.785,426.315C300.591,426.315 293.127,418.97 293.127,409.923C293.127,400.876 300.591,393.531 309.785,393.531Z" style="fill:rgb(0,249,177);"/>
    </g>
    <g transform="matrix(1,0,0,1,-119.417,-346.841)">
        <g transform="matrix(50,0,0,50,267.981,393.474)">
            <path d="M0.317,-0.58C0.386,-0.58 0.439,-0.564 0.476,-0.534C0.512,-0.504 0.531,-0.46 0.531,-0.402C0.531,-0.327 0.49,-0.28 0.41,-0.26C0.427,-0.253 0.441,-0.243 0.452,-0.23C0.458,-0.221 0.465,-0.212 0.47,-0.202C0.476,-0.193 0.483,-0.181 0.49,-0.166C0.498,-0.15 0.504,-0.139 0.508,-0.132C0.515,-0.122 0.521,-0.114 0.528,-0.108C0.534,-0.103 0.542,-0.1 0.55,-0.1L0.559,-0.1C0.567,-0.1 0.573,-0.099 0.577,-0.096C0.581,-0.093 0.585,-0.088 0.587,-0.081C0.589,-0.074 0.59,-0.063 0.59,-0.05C0.59,-0.036 0.589,-0.026 0.587,-0.019C0.585,-0.011 0.581,-0.007 0.577,-0.004C0.573,-0.001 0.567,-0 0.559,-0L0.512,-0C0.486,-0 0.465,-0.005 0.449,-0.016C0.433,-0.026 0.419,-0.043 0.405,-0.068C0.399,-0.079 0.391,-0.095 0.382,-0.115C0.375,-0.13 0.369,-0.143 0.363,-0.154C0.357,-0.164 0.351,-0.175 0.344,-0.186C0.334,-0.2 0.322,-0.21 0.31,-0.216C0.298,-0.222 0.283,-0.225 0.266,-0.225L0.234,-0.225L0.234,-0.1L0.282,-0.1C0.29,-0.1 0.296,-0.099 0.3,-0.096C0.304,-0.093 0.307,-0.088 0.309,-0.081C0.311,-0.074 0.313,-0.063 0.313,-0.05C0.313,-0.036 0.311,-0.026 0.309,-0.019C0.307,-0.011 0.304,-0.007 0.3,-0.004C0.296,-0.001 0.29,-0 0.282,-0L0.06,-0C0.052,-0 0.046,-0.001 0.042,-0.004C0.038,-0.007 0.035,-0.011 0.032,-0.019C0.03,-0.026 0.029,-0.036 0.029,-0.05C0.029,-0.063 0.03,-0.074 0.032,-0.081C0.035,-0.088 0.038,-0.093 0.042,-0.096C0.046,-0.099 0.052,-0.1 0.06,-0.1L0.112,-0.1L0.112,-0.479L0.06,-0.479C0.052,-0.479 0.046,-0.481 0.042,-0.483C0.038,-0.486 0.035,-0.491 0.032,-0.498C0.03,-0.505 0.029,-0.516 0.029,-0.529C0.029,-0.543 0.03,-0.553 0.032,-0.561C0.035,-0.568 0.038,-0.573 0.042,-0.575C0.046,-0.578 0.052,-0.58 0.06,-0.58L0.317,-0.58ZM0.234,-0.33L0.307,-0.33C0.34,-0.33 0.365,-0.336 0.381,-0.348C0.397,-0.36 0.405,-0.378 0.405,-0.402C0.405,-0.427 0.397,-0.445 0.381,-0.457C0.365,-0.469 0.34,-0.475 0.307,-0.475L0.234,-0.475L0.234,-0.33Z" style="fill:white;fill-rule:nonzero;"/>
        </g>
        <g transform="matrix(50,0,0,50,290.461,393.474)">
            <path d="M0.3,-0.181C0.328,-0.181 0.349,-0.178 0.361,-0.174C0.374,-0.169 0.38,-0.161 0.38,-0.15L0.38,-0.026C0.38,-0.015 0.374,-0.007 0.361,-0.002C0.349,0.003 0.328,0.005 0.3,0.005C0.271,0.005 0.251,0.003 0.238,-0.002C0.226,-0.007 0.219,-0.015 0.219,-0.026L0.219,-0.15C0.219,-0.161 0.226,-0.169 0.238,-0.174C0.251,-0.178 0.271,-0.181 0.3,-0.181Z" style="fill:white;fill-rule:nonzero;"/>
        </g>
        <g transform="matrix(50,0,0,50,312.942,393.474)">
            <path d="M0.491,-0.59C0.511,-0.59 0.525,-0.588 0.533,-0.583C0.54,-0.579 0.544,-0.571 0.544,-0.56L0.544,-0.372C0.544,-0.361 0.539,-0.353 0.529,-0.348C0.519,-0.344 0.503,-0.341 0.479,-0.341C0.464,-0.341 0.452,-0.342 0.444,-0.344C0.436,-0.347 0.43,-0.35 0.427,-0.354C0.424,-0.358 0.422,-0.364 0.422,-0.372C0.422,-0.405 0.413,-0.431 0.395,-0.45C0.378,-0.47 0.352,-0.479 0.319,-0.479C0.274,-0.479 0.24,-0.463 0.216,-0.431C0.193,-0.398 0.181,-0.351 0.181,-0.29C0.181,-0.229 0.194,-0.183 0.219,-0.15C0.243,-0.117 0.279,-0.1 0.324,-0.1C0.353,-0.1 0.38,-0.104 0.406,-0.112C0.432,-0.119 0.46,-0.131 0.491,-0.146C0.496,-0.149 0.501,-0.15 0.505,-0.15C0.521,-0.15 0.533,-0.137 0.543,-0.11C0.548,-0.097 0.55,-0.086 0.55,-0.077C0.55,-0.06 0.543,-0.048 0.528,-0.041C0.458,-0.007 0.389,0.011 0.319,0.011C0.266,0.011 0.219,-0.001 0.178,-0.026C0.138,-0.05 0.106,-0.085 0.084,-0.131C0.061,-0.176 0.05,-0.229 0.05,-0.29C0.05,-0.351 0.061,-0.404 0.083,-0.449C0.105,-0.494 0.135,-0.529 0.174,-0.554C0.212,-0.578 0.256,-0.59 0.305,-0.59C0.362,-0.59 0.404,-0.57 0.432,-0.529L0.432,-0.56C0.432,-0.571 0.436,-0.579 0.446,-0.583C0.455,-0.588 0.47,-0.59 0.491,-0.59Z" style="fill:white;fill-rule:nonzero;"/>
        </g>
        <g transform="matrix(50,0,0,50,335.422,393.474)">
            <path d="M0.3,-0.181C0.328,-0.181 0.349,-0.178 0.361,-0.174C0.374,-0.169 0.38,-0.161 0.38,-0.15L0.38,-0.026C0.38,-0.015 0.374,-0.007 0.361,-0.002C0.349,0.003 0.328,0.005 0.3,0.005C0.271,0.005 0.251,0.003 0.238,-0.002C0.226,-0.007 0.219,-0.015 0.219,-0.026L0.219,-0.15C0.219,-0.161 0.226,-0.169 0.238,-0.174C0.251,-0.178 0.271,-0.181 0.3,-0.181Z" style="fill:white;fill-rule:nonzero;"/>
        </g>
        <g transform="matrix(50,0,0,50,387.883,393.474)">
            <path d="M0.478,-0.641C0.489,-0.641 0.497,-0.638 0.501,-0.634C0.506,-0.629 0.508,-0.621 0.508,-0.61L0.508,-0.1L0.551,-0.1C0.559,-0.1 0.565,-0.099 0.569,-0.096C0.573,-0.094 0.576,-0.089 0.578,-0.082C0.58,-0.074 0.582,-0.064 0.582,-0.05C0.582,-0.037 0.58,-0.026 0.578,-0.019C0.576,-0.012 0.573,-0.007 0.569,-0.004C0.565,-0.001 0.559,-0 0.551,-0L0.437,-0C0.425,-0 0.418,-0.002 0.413,-0.007C0.408,-0.012 0.406,-0.02 0.406,-0.031L0.406,-0.072C0.389,-0.046 0.368,-0.025 0.342,-0.011C0.317,0.003 0.289,0.011 0.258,0.011C0.215,0.011 0.178,0 0.146,-0.021C0.114,-0.041 0.09,-0.07 0.073,-0.105C0.056,-0.141 0.047,-0.181 0.047,-0.226C0.047,-0.27 0.056,-0.31 0.073,-0.346C0.09,-0.382 0.114,-0.41 0.146,-0.431C0.178,-0.451 0.215,-0.462 0.258,-0.462C0.283,-0.462 0.307,-0.457 0.329,-0.447C0.35,-0.437 0.37,-0.423 0.386,-0.404L0.386,-0.541L0.314,-0.541C0.307,-0.541 0.301,-0.542 0.296,-0.544C0.292,-0.547 0.289,-0.552 0.287,-0.559C0.285,-0.566 0.284,-0.577 0.284,-0.59C0.284,-0.604 0.285,-0.614 0.287,-0.622C0.289,-0.629 0.292,-0.634 0.296,-0.636C0.301,-0.639 0.307,-0.641 0.314,-0.641L0.478,-0.641ZM0.277,-0.351C0.257,-0.351 0.24,-0.346 0.225,-0.336C0.21,-0.325 0.198,-0.311 0.19,-0.292C0.182,-0.273 0.178,-0.251 0.178,-0.226C0.178,-0.2 0.182,-0.178 0.19,-0.159C0.198,-0.14 0.21,-0.126 0.225,-0.115C0.24,-0.105 0.257,-0.1 0.277,-0.1C0.298,-0.1 0.317,-0.105 0.334,-0.115C0.351,-0.125 0.364,-0.139 0.375,-0.158C0.385,-0.177 0.39,-0.2 0.39,-0.226C0.39,-0.252 0.385,-0.274 0.375,-0.293C0.364,-0.312 0.351,-0.327 0.334,-0.336C0.317,-0.346 0.298,-0.351 0.277,-0.351Z" style="fill:white;fill-rule:nonzero;"/>
        </g>
        <g transform="matrix(50,0,0,50,417.864,393.474)">
            <path d="M0.307,-0.462C0.356,-0.462 0.398,-0.451 0.433,-0.43C0.468,-0.409 0.494,-0.379 0.512,-0.341C0.53,-0.303 0.539,-0.26 0.539,-0.211C0.539,-0.2 0.536,-0.192 0.531,-0.188C0.527,-0.183 0.519,-0.181 0.508,-0.181L0.194,-0.181C0.201,-0.155 0.214,-0.135 0.234,-0.121C0.254,-0.107 0.28,-0.1 0.312,-0.1C0.362,-0.1 0.417,-0.109 0.476,-0.127C0.479,-0.128 0.483,-0.129 0.487,-0.129C0.494,-0.129 0.501,-0.126 0.506,-0.119C0.511,-0.113 0.516,-0.102 0.52,-0.086C0.523,-0.074 0.525,-0.064 0.525,-0.055C0.525,-0.047 0.523,-0.04 0.519,-0.035C0.516,-0.031 0.509,-0.027 0.501,-0.024C0.468,-0.013 0.435,-0.005 0.401,0.001C0.368,0.008 0.334,0.011 0.302,0.011C0.252,0.011 0.21,0.001 0.174,-0.02C0.138,-0.04 0.111,-0.068 0.092,-0.103C0.073,-0.139 0.064,-0.18 0.064,-0.226C0.064,-0.271 0.074,-0.312 0.093,-0.348C0.113,-0.383 0.141,-0.411 0.178,-0.432C0.215,-0.452 0.257,-0.462 0.307,-0.462ZM0.307,-0.351C0.247,-0.351 0.21,-0.326 0.196,-0.276L0.411,-0.276C0.406,-0.3 0.394,-0.318 0.376,-0.331C0.358,-0.344 0.335,-0.351 0.307,-0.351Z" style="fill:white;fill-rule:nonzero;"/>
        </g>
        <g transform="matrix(50,0,0,50,477.825,393.474)">
            <path d="M0.579,-0.58C0.586,-0.58 0.592,-0.578 0.597,-0.575C0.601,-0.573 0.604,-0.568 0.606,-0.561C0.608,-0.553 0.609,-0.543 0.609,-0.529C0.609,-0.516 0.608,-0.505 0.606,-0.498C0.604,-0.491 0.601,-0.486 0.597,-0.483C0.592,-0.481 0.586,-0.479 0.579,-0.479L0.551,-0.479L0.502,-0.021C0.501,-0.013 0.499,-0.007 0.495,-0.002C0.492,0.003 0.486,0.006 0.478,0.008C0.469,0.01 0.458,0.011 0.443,0.011C0.421,0.011 0.406,0.008 0.396,0.003C0.387,-0.001 0.38,-0.01 0.376,-0.021L0.298,-0.251L0.219,-0.021C0.215,-0.01 0.208,-0.001 0.198,0.003C0.188,0.008 0.173,0.011 0.151,0.011C0.136,0.011 0.124,0.01 0.116,0.008C0.108,0.006 0.103,0.003 0.099,-0.002C0.096,-0.007 0.094,-0.013 0.093,-0.021L0.045,-0.479L0.021,-0.479C0.013,-0.479 0.007,-0.481 0.003,-0.483C-0.001,-0.486 -0.004,-0.491 -0.007,-0.498C-0.009,-0.505 -0.01,-0.516 -0.01,-0.529C-0.01,-0.543 -0.009,-0.553 -0.007,-0.561C-0.004,-0.568 -0.001,-0.573 0.003,-0.575C0.007,-0.578 0.013,-0.58 0.021,-0.58L0.213,-0.58C0.221,-0.58 0.227,-0.578 0.231,-0.575C0.236,-0.573 0.239,-0.568 0.241,-0.561C0.243,-0.553 0.244,-0.543 0.244,-0.529C0.244,-0.516 0.243,-0.505 0.241,-0.498C0.239,-0.491 0.236,-0.486 0.231,-0.483C0.227,-0.481 0.221,-0.479 0.213,-0.479L0.156,-0.479L0.182,-0.194L0.253,-0.403C0.256,-0.411 0.26,-0.417 0.267,-0.42C0.273,-0.424 0.284,-0.426 0.299,-0.426C0.316,-0.426 0.327,-0.425 0.334,-0.422C0.342,-0.419 0.346,-0.414 0.348,-0.407L0.42,-0.194L0.446,-0.479L0.396,-0.479C0.388,-0.479 0.382,-0.481 0.378,-0.483C0.374,-0.486 0.371,-0.491 0.368,-0.498C0.366,-0.505 0.365,-0.516 0.365,-0.529C0.365,-0.543 0.366,-0.553 0.368,-0.561C0.371,-0.568 0.374,-0.573 0.378,-0.575C0.382,-0.578 0.388,-0.58 0.396,-0.58L0.579,-0.58Z" style="fill:white;fill-rule:nonzero;"/>
        </g>
        <g transform="matrix(50,0,0,50,507.805,393.474)">
            <path d="M0.337,-0.451C0.348,-0.451 0.356,-0.449 0.361,-0.444C0.365,-0.439 0.368,-0.431 0.368,-0.42L0.368,-0.1L0.505,-0.1C0.513,-0.1 0.519,-0.099 0.523,-0.096C0.527,-0.093 0.53,-0.088 0.532,-0.081C0.535,-0.074 0.536,-0.063 0.536,-0.05C0.536,-0.036 0.535,-0.026 0.532,-0.019C0.53,-0.011 0.527,-0.007 0.523,-0.004C0.519,-0.001 0.513,-0 0.505,-0L0.112,-0C0.104,-0 0.098,-0.001 0.094,-0.004C0.09,-0.007 0.087,-0.011 0.085,-0.019C0.083,-0.026 0.082,-0.036 0.082,-0.05C0.082,-0.063 0.083,-0.074 0.085,-0.081C0.087,-0.088 0.09,-0.093 0.094,-0.096C0.098,-0.099 0.104,-0.1 0.112,-0.1L0.246,-0.1L0.246,-0.351L0.142,-0.351C0.134,-0.351 0.128,-0.352 0.124,-0.355C0.119,-0.358 0.116,-0.362 0.114,-0.37C0.112,-0.377 0.111,-0.387 0.111,-0.401C0.111,-0.415 0.112,-0.425 0.114,-0.432C0.116,-0.439 0.119,-0.444 0.124,-0.447C0.128,-0.45 0.134,-0.451 0.142,-0.451L0.337,-0.451ZM0.305,-0.666C0.328,-0.666 0.344,-0.663 0.354,-0.658C0.363,-0.654 0.368,-0.646 0.368,-0.635L0.368,-0.555C0.368,-0.544 0.363,-0.536 0.355,-0.531C0.346,-0.526 0.33,-0.524 0.308,-0.524C0.285,-0.524 0.269,-0.526 0.26,-0.531C0.25,-0.536 0.246,-0.544 0.246,-0.555L0.246,-0.635C0.246,-0.646 0.25,-0.654 0.258,-0.659C0.267,-0.663 0.282,-0.666 0.305,-0.666Z" style="fill:white;fill-rule:nonzero;"/>
        </g>
        <g transform="matrix(50,0,0,50,537.786,393.474)">
            <path d="M0.237,-0.59C0.252,-0.59 0.264,-0.589 0.272,-0.587C0.281,-0.585 0.286,-0.582 0.29,-0.578C0.293,-0.573 0.294,-0.567 0.294,-0.56L0.294,-0.422L0.476,-0.422C0.487,-0.422 0.495,-0.418 0.5,-0.411C0.504,-0.403 0.506,-0.389 0.506,-0.369C0.506,-0.349 0.504,-0.335 0.5,-0.328C0.495,-0.321 0.487,-0.317 0.476,-0.317L0.294,-0.317L0.294,-0.181C0.294,-0.127 0.315,-0.1 0.357,-0.1C0.372,-0.1 0.39,-0.103 0.41,-0.11C0.43,-0.117 0.453,-0.126 0.48,-0.138C0.487,-0.141 0.493,-0.143 0.497,-0.143C0.504,-0.143 0.51,-0.14 0.516,-0.134C0.522,-0.128 0.528,-0.119 0.533,-0.106C0.539,-0.091 0.542,-0.079 0.542,-0.07C0.542,-0.063 0.54,-0.057 0.536,-0.052C0.533,-0.048 0.528,-0.044 0.521,-0.04C0.454,-0.006 0.396,0.011 0.347,0.011C0.29,0.011 0.247,-0.005 0.217,-0.037C0.187,-0.068 0.172,-0.114 0.172,-0.175L0.172,-0.317L0.078,-0.317C0.067,-0.317 0.059,-0.321 0.054,-0.328C0.05,-0.335 0.047,-0.349 0.047,-0.369C0.047,-0.389 0.05,-0.403 0.054,-0.411C0.059,-0.418 0.067,-0.422 0.078,-0.422L0.172,-0.422L0.172,-0.56C0.172,-0.571 0.177,-0.579 0.187,-0.583C0.197,-0.588 0.214,-0.59 0.237,-0.59Z" style="fill:white;fill-rule:nonzero;"/>
        </g>
        <g transform="matrix(50,0,0,50,267.981,443.474)">
            <path d="M0.544,-0.58C0.552,-0.58 0.558,-0.578 0.563,-0.575C0.567,-0.573 0.57,-0.568 0.572,-0.561C0.574,-0.553 0.575,-0.543 0.575,-0.529C0.575,-0.516 0.574,-0.505 0.572,-0.498C0.57,-0.491 0.567,-0.486 0.563,-0.483C0.558,-0.481 0.552,-0.479 0.544,-0.479L0.517,-0.479L0.517,-0.1L0.544,-0.1C0.552,-0.1 0.558,-0.099 0.563,-0.096C0.567,-0.093 0.57,-0.088 0.572,-0.081C0.574,-0.074 0.575,-0.063 0.575,-0.05C0.575,-0.036 0.574,-0.026 0.572,-0.019C0.57,-0.011 0.567,-0.007 0.563,-0.004C0.558,-0.001 0.552,-0 0.544,-0L0.362,-0C0.354,-0 0.348,-0.001 0.344,-0.004C0.34,-0.007 0.336,-0.011 0.334,-0.019C0.332,-0.026 0.331,-0.036 0.331,-0.05C0.331,-0.063 0.332,-0.074 0.334,-0.081C0.336,-0.088 0.34,-0.093 0.344,-0.096C0.348,-0.099 0.354,-0.1 0.362,-0.1L0.395,-0.1L0.395,-0.246L0.205,-0.246L0.205,-0.1L0.238,-0.1C0.246,-0.1 0.252,-0.099 0.256,-0.096C0.26,-0.093 0.263,-0.088 0.265,-0.081C0.267,-0.074 0.269,-0.063 0.269,-0.05C0.269,-0.036 0.267,-0.026 0.265,-0.019C0.263,-0.011 0.26,-0.007 0.256,-0.004C0.252,-0.001 0.246,-0 0.238,-0L0.055,-0C0.047,-0 0.041,-0.001 0.037,-0.004C0.033,-0.007 0.03,-0.011 0.028,-0.019C0.025,-0.026 0.024,-0.036 0.024,-0.05C0.024,-0.063 0.025,-0.074 0.028,-0.081C0.03,-0.088 0.033,-0.093 0.037,-0.096C0.041,-0.099 0.047,-0.1 0.055,-0.1L0.083,-0.1L0.083,-0.479L0.055,-0.479C0.047,-0.479 0.041,-0.481 0.037,-0.483C0.033,-0.486 0.03,-0.491 0.028,-0.498C0.025,-0.505 0.024,-0.516 0.024,-0.529C0.024,-0.543 0.025,-0.553 0.028,-0.561C0.03,-0.568 0.033,-0.573 0.037,-0.575C0.041,-0.578 0.047,-0.58 0.055,-0.58L0.238,-0.58C0.246,-0.58 0.252,-0.578 0.256,-0.575C0.26,-0.573 0.263,-0.568 0.265,-0.561C0.267,-0.553 0.269,-0.543 0.269,-0.529C0.269,-0.516 0.267,-0.505 0.265,-0.498C0.263,-0.491 0.26,-0.486 0.256,-0.483C0.252,-0.481 0.246,-0.479 0.238,-0.479L0.205,-0.479L0.205,-0.351L0.395,-0.351L0.395,-0.479L0.362,-0.479C0.354,-0.479 0.348,-0.481 0.344,-0.483C0.34,-0.486 0.336,-0.491 0.334,-0.498C0.332,-0.505 0.331,-0.516 0.331,-0.529C0.331,-0.543 0.332,-0.553 0.334,-0.561C0.336,-0.568 0.34,-0.573 0.344,-0.575C0.348,-0.578 0.354,-0.58 0.362,-0.58L0.544,-0.58Z" style="fill:white;fill-rule:nonzero;"/>
        </g>
        <g transform="matrix(50,0,0,50,297.961,443.474)">
            <path d="M0.3,-0.462C0.349,-0.462 0.393,-0.452 0.43,-0.432C0.467,-0.411 0.495,-0.383 0.515,-0.348C0.535,-0.312 0.545,-0.271 0.545,-0.226C0.545,-0.18 0.535,-0.139 0.515,-0.104C0.495,-0.068 0.467,-0.04 0.43,-0.02C0.393,0.001 0.349,0.011 0.3,0.011C0.25,0.011 0.207,0.001 0.17,-0.02C0.133,-0.04 0.104,-0.068 0.084,-0.104C0.064,-0.139 0.054,-0.18 0.054,-0.226C0.054,-0.271 0.064,-0.312 0.084,-0.348C0.104,-0.383 0.133,-0.411 0.17,-0.432C0.207,-0.452 0.25,-0.462 0.3,-0.462ZM0.3,-0.351C0.276,-0.351 0.256,-0.346 0.239,-0.336C0.222,-0.325 0.208,-0.311 0.199,-0.292C0.19,-0.273 0.185,-0.251 0.185,-0.226C0.185,-0.2 0.19,-0.178 0.199,-0.159C0.208,-0.14 0.222,-0.126 0.239,-0.115C0.256,-0.105 0.276,-0.1 0.3,-0.1C0.323,-0.1 0.344,-0.105 0.361,-0.115C0.378,-0.126 0.391,-0.14 0.401,-0.159C0.41,-0.178 0.415,-0.2 0.415,-0.226C0.415,-0.251 0.41,-0.273 0.401,-0.292C0.391,-0.311 0.378,-0.325 0.361,-0.336C0.344,-0.346 0.323,-0.351 0.3,-0.351Z" style="fill:white;fill-rule:nonzero;"/>
        </g>
        <g transform="matrix(50,0,0,50,327.942,443.474)">
            <path d="M0.332,-0.641C0.343,-0.641 0.351,-0.638 0.356,-0.634C0.36,-0.629 0.363,-0.621 0.363,-0.61L0.363,-0.1L0.5,-0.1C0.508,-0.1 0.514,-0.099 0.518,-0.096C0.522,-0.093 0.525,-0.088 0.528,-0.081C0.53,-0.074 0.531,-0.063 0.531,-0.05C0.531,-0.036 0.53,-0.026 0.528,-0.019C0.525,-0.011 0.522,-0.007 0.518,-0.004C0.514,-0.001 0.508,-0 0.5,-0L0.107,-0C0.1,-0 0.094,-0.001 0.089,-0.004C0.085,-0.007 0.082,-0.011 0.08,-0.019C0.078,-0.026 0.077,-0.036 0.077,-0.05C0.077,-0.063 0.078,-0.074 0.08,-0.081C0.082,-0.088 0.085,-0.093 0.089,-0.096C0.094,-0.099 0.1,-0.1 0.107,-0.1L0.241,-0.1L0.241,-0.541L0.127,-0.541C0.119,-0.541 0.113,-0.542 0.109,-0.544C0.105,-0.547 0.101,-0.552 0.099,-0.559C0.097,-0.566 0.096,-0.577 0.096,-0.59C0.096,-0.604 0.097,-0.614 0.099,-0.622C0.101,-0.629 0.105,-0.634 0.109,-0.636C0.113,-0.639 0.119,-0.641 0.127,-0.641L0.332,-0.641Z" style="fill:white;fill-rule:nonzero;"/>
        </g>
        <g transform="matrix(50,0,0,50,357.922,443.474)">
            <path d="M0.478,-0.641C0.489,-0.641 0.497,-0.638 0.501,-0.634C0.506,-0.629 0.508,-0.621 0.508,-0.61L0.508,-0.1L0.551,-0.1C0.559,-0.1 0.565,-0.099 0.569,-0.096C0.573,-0.094 0.576,-0.089 0.578,-0.082C0.58,-0.074 0.582,-0.064 0.582,-0.05C0.582,-0.037 0.58,-0.026 0.578,-0.019C0.576,-0.012 0.573,-0.007 0.569,-0.004C0.565,-0.001 0.559,-0 0.551,-0L0.437,-0C0.425,-0 0.418,-0.002 0.413,-0.007C0.408,-0.012 0.406,-0.02 0.406,-0.031L0.406,-0.072C0.389,-0.046 0.368,-0.025 0.342,-0.011C0.317,0.003 0.289,0.011 0.258,0.011C0.215,0.011 0.178,0 0.146,-0.021C0.114,-0.041 0.09,-0.07 0.073,-0.105C0.056,-0.141 0.047,-0.181 0.047,-0.226C0.047,-0.27 0.056,-0.31 0.073,-0.346C0.09,-0.382 0.114,-0.41 0.146,-0.431C0.178,-0.451 0.215,-0.462 0.258,-0.462C0.283,-0.462 0.307,-0.457 0.329,-0.447C0.35,-0.437 0.37,-0.423 0.386,-0.404L0.386,-0.541L0.314,-0.541C0.307,-0.541 0.301,-0.542 0.296,-0.544C0.292,-0.547 0.289,-0.552 0.287,-0.559C0.285,-0.566 0.284,-0.577 0.284,-0.59C0.284,-0.604 0.285,-0.614 0.287,-0.622C0.289,-0.629 0.292,-0.634 0.296,-0.636C0.301,-0.639 0.307,-0.641 0.314,-0.641L0.478,-0.641ZM0.277,-0.351C0.257,-0.351 0.24,-0.346 0.225,-0.336C0.21,-0.325 0.198,-0.311 0.19,-0.292C0.182,-0.273 0.178,-0.251 0.178,-0.226C0.178,-0.2 0.182,-0.178 0.19,-0.159C0.198,-0.14 0.21,-0.126 0.225,-0.115C0.24,-0.105 0.257,-0.1 0.277,-0.1C0.298,-0.1 0.317,-0.105 0.334,-0.115C0.351,-0.125 0.364,-0.139 0.375,-0.158C0.385,-0.177 0.39,-0.2 0.39,-0.226C0.39,-0.252 0.385,-0.274 0.375,-0.293C0.364,-0.312 0.351,-0.327 0.334,-0.336C0.317,-0.346 0.298,-0.351 0.277,-0.351Z" style="fill:white;fill-rule:nonzero;"/>
        </g>
        <g transform="matrix(50,0,0,50,387.903,443.474)">
            <path d="M0.337,-0.451C0.348,-0.451 0.356,-0.449 0.361,-0.444C0.365,-0.439 0.368,-0.431 0.368,-0.42L0.368,-0.1L0.505,-0.1C0.513,-0.1 0.519,-0.099 0.523,-0.096C0.527,-0.093 0.53,-0.088 0.532,-0.081C0.535,-0.074 0.536,-0.063 0.536,-0.05C0.536,-0.036 0.535,-0.026 0.532,-0.019C0.53,-0.011 0.527,-0.007 0.523,-0.004C0.519,-0.001 0.513,-0 0.505,-0L0.112,-0C0.104,-0 0.098,-0.001 0.094,-0.004C0.09,-0.007 0.087,-0.011 0.085,-0.019C0.083,-0.026 0.082,-0.036 0.082,-0.05C0.082,-0.063 0.083,-0.074 0.085,-0.081C0.087,-0.088 0.09,-0.093 0.094,-0.096C0.098,-0.099 0.104,-0.1 0.112,-0.1L0.246,-0.1L0.246,-0.351L0.142,-0.351C0.134,-0.351 0.128,-0.352 0.124,-0.355C0.119,-0.358 0.116,-0.362 0.114,-0.37C0.112,-0.377 0.111,-0.387 0.111,-0.401C0.111,-0.415 0.112,-0.425 0.114,-0.432C0.116,-0.439 0.119,-0.444 0.124,-0.447C0.128,-0.45 0.134,-0.451 0.142,-0.451L0.337,-0.451ZM0.305,-0.666C0.328,-0.666 0.344,-0.663 0.354,-0.658C0.363,-0.654 0.368,-0.646 0.368,-0.635L0.368,-0.555C0.368,-0.544 0.363,-0.536 0.355,-0.531C0.346,-0.526 0.33,-0.524 0.308,-0.524C0.285,-0.524 0.269,-0.526 0.26,-0.531C0.25,-0.536 0.246,-0.544 0.246,-0.555L0.246,-0.635C0.246,-0.646 0.25,-0.654 0.258,-0.659C0.267,-0.663 0.282,-0.666 0.305,-0.666Z" style="fill:white;fill-rule:nonzero;"/>
        </g>
        <g transform="matrix(50,0,0,50,417.883,443.474)">
            <path d="M0.37,-0.462C0.399,-0.462 0.425,-0.455 0.448,-0.442C0.47,-0.429 0.487,-0.411 0.499,-0.387C0.511,-0.363 0.517,-0.335 0.517,-0.303L0.517,-0.1L0.555,-0.1C0.563,-0.1 0.569,-0.099 0.573,-0.096C0.577,-0.093 0.58,-0.088 0.582,-0.081C0.584,-0.074 0.585,-0.063 0.585,-0.05C0.585,-0.036 0.584,-0.026 0.582,-0.019C0.58,-0.011 0.577,-0.007 0.573,-0.004C0.569,-0.001 0.563,-0 0.555,-0L0.372,-0C0.364,-0 0.358,-0.001 0.354,-0.004C0.35,-0.007 0.347,-0.011 0.344,-0.019C0.342,-0.026 0.341,-0.036 0.341,-0.05C0.341,-0.063 0.342,-0.074 0.344,-0.081C0.347,-0.088 0.35,-0.093 0.354,-0.096C0.358,-0.099 0.364,-0.1 0.372,-0.1L0.395,-0.1L0.395,-0.274C0.395,-0.299 0.391,-0.319 0.382,-0.332C0.373,-0.345 0.358,-0.351 0.338,-0.351C0.319,-0.351 0.301,-0.343 0.284,-0.327C0.267,-0.312 0.254,-0.291 0.243,-0.264C0.233,-0.238 0.228,-0.21 0.228,-0.18L0.228,-0.1L0.251,-0.1C0.259,-0.1 0.265,-0.099 0.269,-0.096C0.273,-0.093 0.276,-0.088 0.279,-0.081C0.281,-0.074 0.282,-0.063 0.282,-0.05C0.282,-0.036 0.281,-0.026 0.279,-0.019C0.276,-0.011 0.273,-0.007 0.269,-0.004C0.265,-0.001 0.259,-0 0.251,-0L0.068,-0C0.061,-0 0.055,-0.001 0.05,-0.004C0.046,-0.007 0.043,-0.011 0.041,-0.019C0.039,-0.026 0.038,-0.036 0.038,-0.05C0.038,-0.063 0.039,-0.074 0.041,-0.081C0.043,-0.088 0.046,-0.093 0.05,-0.096C0.055,-0.099 0.061,-0.1 0.068,-0.1L0.106,-0.1L0.106,-0.351L0.059,-0.351C0.051,-0.351 0.045,-0.352 0.041,-0.355C0.036,-0.358 0.033,-0.362 0.031,-0.37C0.029,-0.377 0.028,-0.387 0.028,-0.401C0.028,-0.415 0.029,-0.425 0.031,-0.432C0.033,-0.439 0.036,-0.444 0.041,-0.447C0.045,-0.45 0.051,-0.451 0.059,-0.451L0.178,-0.451C0.189,-0.451 0.197,-0.449 0.201,-0.444C0.206,-0.439 0.208,-0.431 0.208,-0.42L0.208,-0.35C0.251,-0.424 0.305,-0.462 0.37,-0.462Z" style="fill:white;fill-rule:nonzero;"/>
        </g>
        <g transform="matrix(50,0,0,50,447.864,443.474)">
            <path d="M0.258,-0.462C0.289,-0.462 0.317,-0.455 0.342,-0.442C0.368,-0.429 0.389,-0.411 0.406,-0.386L0.406,-0.42C0.406,-0.431 0.408,-0.439 0.413,-0.444C0.418,-0.449 0.425,-0.451 0.437,-0.451L0.551,-0.451C0.559,-0.451 0.565,-0.45 0.569,-0.447C0.573,-0.444 0.576,-0.439 0.578,-0.432C0.58,-0.425 0.582,-0.415 0.582,-0.401C0.582,-0.387 0.58,-0.377 0.578,-0.37C0.576,-0.362 0.573,-0.358 0.569,-0.355C0.565,-0.352 0.559,-0.351 0.551,-0.351L0.508,-0.351L0.508,-0C0.508,0.063 0.489,0.113 0.451,0.148C0.413,0.183 0.355,0.2 0.279,0.2C0.251,0.2 0.221,0.198 0.188,0.192C0.154,0.187 0.123,0.179 0.092,0.17C0.077,0.165 0.069,0.154 0.069,0.136C0.069,0.128 0.071,0.117 0.075,0.102C0.08,0.087 0.086,0.076 0.092,0.069C0.098,0.062 0.105,0.059 0.113,0.059C0.117,0.059 0.121,0.059 0.125,0.061C0.187,0.08 0.237,0.089 0.274,0.089C0.314,0.089 0.342,0.081 0.36,0.065C0.377,0.048 0.386,0.023 0.386,-0.01L0.386,-0.06C0.37,-0.042 0.35,-0.028 0.329,-0.019C0.307,-0.009 0.283,-0.004 0.258,-0.004C0.216,-0.004 0.179,-0.014 0.147,-0.033C0.115,-0.053 0.09,-0.08 0.073,-0.115C0.056,-0.15 0.047,-0.189 0.047,-0.233C0.047,-0.277 0.056,-0.316 0.073,-0.351C0.09,-0.385 0.115,-0.413 0.147,-0.432C0.179,-0.452 0.216,-0.462 0.258,-0.462ZM0.277,-0.351C0.247,-0.351 0.223,-0.341 0.205,-0.32C0.187,-0.299 0.178,-0.27 0.178,-0.233C0.178,-0.195 0.187,-0.166 0.205,-0.146C0.223,-0.125 0.247,-0.115 0.277,-0.115C0.298,-0.115 0.317,-0.119 0.334,-0.128C0.351,-0.137 0.365,-0.15 0.375,-0.168C0.385,-0.186 0.39,-0.208 0.39,-0.233C0.39,-0.258 0.385,-0.28 0.375,-0.298C0.365,-0.315 0.351,-0.329 0.334,-0.338C0.317,-0.347 0.298,-0.351 0.277,-0.351Z" style="fill:white;fill-rule:nonzero;"/>
        </g>
    </g>
</svg>
